<?xml version="1.0" encoding="UTF-8"?>
<!--Generator: Apple Native CoreSVG 341-->
<!DOCTYPE svg
PUBLIC "-//W3C//DTD SVG 1.1//EN"
       "http://www.w3.org/Graphics/SVG/1.1/DTD/svg11.dtd">
<svg version="1.1" xmlns="http://www.w3.org/2000/svg" xmlns:xlink="http://www.w3.org/1999/xlink" viewBox="0 0 191.211 191.309">
 <g>
  <rect height="191.309" opacity="0" width="191.211" x="0" y="0"/>
  <path d="M0 54.2969C0 58.5938 3.51562 62.1094 7.8125 62.1094C12.207 62.1094 15.7227 58.5938 15.7227 54.2969L15.7227 35.8398C15.7227 23.4375 23.1445 15.918 35.6445 15.918L54.4922 15.918C58.7891 15.918 62.4023 12.3047 62.4023 8.00781C62.4023 3.71094 58.7891 0.195312 54.4922 0.195312L35.6445 0.195312C13.4766 0.195312 0 13.7695 0 35.8398ZM191.211 54.2969L191.211 35.8398C191.211 13.7695 177.734 0.195312 155.566 0.195312L136.621 0.195312C132.324 0.195312 128.809 3.71094 128.809 8.00781C128.809 12.3047 132.324 15.918 136.621 15.918L155.566 15.918C168.066 15.918 175.488 23.4375 175.488 35.8398L175.488 54.2969C175.488 58.5938 179.004 62.1094 183.301 62.1094C187.598 62.1094 191.211 58.5938 191.211 54.2969ZM0 137.207L0 155.664C0 177.734 13.4766 191.309 35.6445 191.309L54.4922 191.309C58.7891 191.309 62.4023 187.793 62.4023 183.496C62.4023 179.199 58.7891 175.586 54.4922 175.586L35.6445 175.586C23.1445 175.586 15.7227 168.066 15.7227 155.664L15.7227 137.207C15.7227 132.91 12.207 129.297 7.8125 129.297C3.51562 129.297 0 132.91 0 137.207ZM191.211 137.207C191.211 132.91 187.598 129.297 183.301 129.297C179.004 129.297 175.488 132.91 175.488 137.207L175.488 155.664C175.488 168.066 168.066 175.586 155.566 175.586L136.621 175.586C132.324 175.586 128.809 179.199 128.809 183.496C128.809 187.793 132.324 191.309 136.621 191.309L155.566 191.309C177.734 191.309 191.211 177.734 191.211 155.664Z" fill="#00c3d0"/>
  <path d="M58.3984 89.1602C62.793 89.1602 65.918 85.9375 65.918 81.543L65.918 67.5781C65.918 63.1836 62.793 59.9609 58.3984 59.9609C54.1016 59.9609 50.8789 63.1836 50.8789 67.5781L50.8789 81.543C50.8789 85.9375 54.1016 89.1602 58.3984 89.1602ZM87.6953 112.109C87.9883 112.109 88.2812 112.109 88.5742 112.109C98.4375 112.109 103.809 106.738 103.809 96.9727L103.809 66.2109C103.809 62.5 101.172 59.8633 97.4609 59.8633C93.6523 59.8633 91.1133 62.5 91.1133 66.2109L91.1133 97.8516C91.1133 98.7305 90.5273 99.3164 89.5508 99.3164L86.2305 99.3164C82.7148 99.3164 79.9805 101.953 79.9805 105.469C79.9805 109.668 82.8125 112.109 87.6953 112.109ZM132.422 89.1602C136.719 89.1602 139.941 85.9375 139.941 81.543L139.941 67.5781C139.941 63.1836 136.719 59.9609 132.422 59.9609C128.027 59.9609 124.902 63.1836 124.902 67.5781L124.902 81.543C124.902 85.9375 128.027 89.1602 132.422 89.1602ZM95.0195 145.02C106.738 145.02 118.652 139.941 127.246 131.445C128.32 130.273 129.004 128.711 129.004 126.66C129.004 123.047 126.172 120.41 122.559 120.41C120.801 120.41 119.434 120.996 117.48 123.047C112.207 128.516 103.711 132.422 95.0195 132.422C86.7188 132.422 78.2227 128.711 72.5586 123.047C70.9961 121.484 69.6289 120.41 67.2852 120.41C63.7695 120.41 60.9375 123.047 60.9375 126.66C60.9375 128.418 61.6211 129.883 62.793 131.348C70.8008 140.332 83.2031 145.02 95.0195 145.02Z" fill="#00c3d0"/>
 </g>
</svg>
